<svg width="45" height="44" viewBox="0 0 45 44" fill="none" xmlns="http://www.w3.org/2000/svg">
<ellipse cx="22.5" cy="22" rx="18.5" ry="18" fill="white"/>
<ellipse cx="22.5" cy="22" rx="22.5" ry="22" fill="white" fill-opacity="0.4"/>
<path d="M23.5674 12.9019L14.8112 13.1193V21.9151L12.3405 22.1325V31.0666L32.6201 31.284V10.7277H23.5674V12.9019Z" fill="white"/>
<path d="M23.2261 10.4193L23.0732 10.5722V11.5262V12.4802H18.8302C15.2776 12.4802 14.5555 12.4908 14.4026 12.554C14.0442 12.7069 14.06 12.4855 14.06 17.224V21.4934H13.1534C12.0993 21.4934 11.9517 21.5408 11.8463 21.8993C11.8041 22.0416 11.7936 23.4647 11.8041 26.7643L11.8199 31.429L11.9622 31.7295C12.1467 32.1248 12.5104 32.4726 12.8794 32.6097C13.1693 32.7204 13.2061 32.7204 22.4934 32.7204C31.7807 32.7204 31.8176 32.7204 32.1074 32.6097C32.4764 32.4726 32.8401 32.1248 33.0246 31.7295L33.1669 31.429L33.1827 21.1508C33.1933 13.9508 33.1827 10.8147 33.1406 10.6776C33.1089 10.5722 33.0246 10.4351 32.9455 10.3772C32.8138 10.2665 32.7716 10.2665 28.0963 10.2665H23.3789L23.2261 10.4193ZM32.0337 20.745C32.0337 29.3206 32.0284 30.1271 31.9493 30.2378C31.7596 30.5066 31.7859 30.5066 27.8433 30.5066H24.1801V20.94V11.3734H28.1069H32.0337V20.745ZM23.0732 17.5666V21.4934H19.1201H15.1669V17.5666V13.6398H19.1201H23.0732V17.5666ZM23.0468 26.5534V30.4803L18.3031 30.4961C15.0562 30.5066 13.496 30.4908 13.3643 30.4539C13.2588 30.4223 13.1218 30.3379 13.0638 30.2589C12.9531 30.1271 12.9531 30.0744 12.9531 26.3637V22.6003L18.0026 22.6108L23.0468 22.6267V26.5534Z" fill="black"/>
<path d="M25.2975 14.1775L25.3134 15.3002H25.8668H26.4202L26.436 14.1775L26.4466 13.0601H25.8668H25.287L25.2975 14.1775Z" fill="black"/>
<path d="M27.5535 14.1933V15.3265H28.1069H28.6603V14.1933V13.0601H28.1069H27.5535V14.1933Z" fill="black"/>
<path d="M29.8199 14.1933V15.3265H30.3734H30.9268V14.1933V13.0601H30.3734H29.8199V14.1933Z" fill="black"/>
<path d="M25.2975 17.5508L25.3134 18.6735H25.8668H26.4202L26.436 17.5508L26.4466 16.4333H25.8668H25.287L25.2975 17.5508Z" fill="black"/>
<path d="M27.5535 17.5666V18.6998H28.1069H28.6603V17.5666V16.4333H28.1069H27.5535V17.5666Z" fill="black"/>
<path d="M29.8199 17.5666V18.6998H30.3734H30.9268V17.5666V16.4333H30.3734H29.8199V17.5666Z" fill="black"/>
<path d="M25.2975 20.9242L25.3134 22.0469H25.8668H26.4202L26.436 20.9242L26.4466 19.8068H25.8668H25.287L25.2975 20.9242Z" fill="black"/>
<path d="M27.5535 20.94V22.0732H28.1069H28.6603V20.94V19.8068H28.1069H27.5535V20.94Z" fill="black"/>
<path d="M29.8199 20.94V22.0732H30.3734H30.9268V20.94V19.8068H30.3734H29.8199V20.94Z" fill="black"/>
<path d="M25.2975 24.2976L25.3134 25.4202H25.8668H26.4202L26.436 24.2976L26.4466 23.1801H25.8668H25.287L25.2975 24.2976Z" fill="black"/>
<path d="M27.5535 24.3134V25.4466H28.1069H28.6603V24.3134V23.1801H28.1069H27.5535V24.3134Z" fill="black"/>
<path d="M29.8199 24.3134V25.4466H30.3734H30.9268V24.3134V23.1801H30.3734H29.8199V24.3134Z" fill="black"/>
<path d="M25.2975 27.6708L25.3134 28.7935H25.8668H26.4202L26.436 27.6708L26.4466 26.5534H25.8668H25.287L25.2975 27.6708Z" fill="black"/>
<path d="M27.5535 27.6867V28.8199H28.1069H28.6603V27.6867V26.5534H28.1069H27.5535V27.6867Z" fill="black"/>
<path d="M29.8199 27.6867V28.8199H30.3734H30.9268V27.6867V26.5534H30.3734H29.8199V27.6867Z" fill="black"/>
<path d="M16.3265 15.3001V15.8536H19.1201H21.9137V15.3001V14.7467H19.1201H16.3265V15.3001Z" fill="black"/>
<path d="M16.3265 17.5666V18.1201H19.1201H21.9137V17.5666V17.0132H19.1201H16.3265V17.5666Z" fill="black"/>
<path d="M16.3265 19.8067V20.3865H19.1201H21.9137V19.8067V19.2269H19.1201H16.3265V19.8067Z" fill="black"/>
<path d="M14.0601 24.3133V24.8668H14.6135H15.1669V24.3133V23.7599H14.6135H14.0601V24.3133Z" fill="black"/>
<path d="M16.3265 24.3133V24.8668H16.88H17.4334V24.3133V23.7599H16.88H16.3265V24.3133Z" fill="black"/>
<path d="M18.5403 24.3133V24.8668H19.1201H19.6999V24.3133V23.7599H19.1201H18.5403V24.3133Z" fill="black"/>
<path d="M20.8068 24.3133V24.8668H21.3602H21.9136V24.3133V23.7599H21.3602H20.8068V24.3133Z" fill="black"/>
<path d="M14.0601 26.5534V27.1332H14.6135H15.1669V26.5534V25.9736H14.6135H14.0601V26.5534Z" fill="black"/>
<path d="M16.3265 26.5534V27.1332H16.88H17.4334V26.5534V25.9736H16.88H16.3265V26.5534Z" fill="black"/>
<path d="M18.5613 26.0422C18.5508 26.0791 18.5455 26.3374 18.5508 26.6114L18.5666 27.1069H19.12H19.6735V26.5534V26L19.1306 25.9842C18.7142 25.9737 18.5824 25.9842 18.5613 26.0422Z" fill="black"/>
<path d="M20.8068 26.5534V27.1332H21.3602H21.9136V26.5534V25.9736H21.3602H20.8068V26.5534Z" fill="black"/>
<path d="M14.0601 28.7936V29.347H14.6135H15.1669V28.7936V28.2401H14.6135H14.0601V28.7936Z" fill="black"/>
<path d="M16.3265 28.7936V29.347H16.88H17.4334V28.7936V28.2401H16.88H16.3265V28.7936Z" fill="black"/>
<path d="M18.5403 28.7936V29.347H19.1201H19.6999V28.7936V28.2401H19.1201H18.5403V28.7936Z" fill="black"/>
<path d="M20.8068 28.7936V29.347H21.3602H21.9136V28.7936V28.2401H21.3602H20.8068V28.7936Z" fill="black"/>
</svg>
