<svg width="45" height="44" viewBox="0 0 45 44" fill="none" xmlns="http://www.w3.org/2000/svg">
<ellipse cx="22.5" cy="22" rx="18.5" ry="18" fill="white"/>
<ellipse cx="22.5" cy="22" rx="22.5" ry="22" fill="white" fill-opacity="0.4"/>
<path d="M22.5549 10.5739L12.7819 15.2957L13.3126 29.1867H31.6874L32.2182 15.2957L22.5549 10.5739Z" fill="white"/>
<path d="M21.713 10.3567C15.1 13.4802 12.3426 14.8028 12.2401 14.9053C12.1181 15.0273 12.1132 15.0468 12.0839 15.9204C12.0644 16.4085 12.0644 17.2089 12.0839 17.6969L12.1132 18.59L12.3523 18.8389L12.5866 19.0878V24.2172C12.5866 27.7555 12.6012 29.4246 12.6403 29.6051C12.7428 30.1079 13.1283 30.5715 13.592 30.7472C13.8262 30.835 14.0898 30.8399 22.5183 30.8399H31.2054L31.4641 30.7228C31.7764 30.5812 32.162 30.1762 32.284 29.8541C32.3719 29.6296 32.3767 29.3514 32.3914 24.3538L32.4011 19.083L32.6403 18.8389L32.8745 18.59L32.9038 17.6823C32.9234 17.1845 32.9234 16.3792 32.9038 15.9009L32.8745 15.0273L32.7233 14.8907C32.5671 14.7442 22.7818 10.0883 22.5476 10.0444C22.4597 10.0298 22.2108 10.1176 21.713 10.3567ZM27.1791 13.3582L31.8399 15.5642L31.8546 16.2913C31.8643 16.8624 31.8545 17.0088 31.8057 16.9893C31.7716 16.9795 29.6974 15.9985 27.1986 14.8126C24.1972 13.3924 22.6013 12.6603 22.4988 12.6603C22.3963 12.6603 20.7857 13.3972 17.7599 14.8321C15.2367 16.0278 13.1625 17.0039 13.1479 17.0039C13.1332 17.0039 13.1283 16.6818 13.1332 16.2865L13.1479 15.5691L17.8086 13.3582C20.3709 12.143 22.4792 11.1474 22.4939 11.1474C22.5085 11.1474 24.6168 12.143 27.1791 13.3582ZM26.8912 15.8228L31.303 17.9117L31.3177 23.1972L31.3275 28.4778L31.1859 28.6242L31.0444 28.7657H28.5993H26.1591L26.1444 24.9688C26.1298 21.4158 26.1249 21.162 26.0371 20.9424C25.9151 20.6203 25.5295 20.2152 25.2171 20.0737L24.9585 19.9565H22.5183C20.2342 19.9565 20.0634 19.9614 19.8389 20.0493C19.3753 20.225 18.9897 20.6886 18.8872 21.1913C18.8531 21.367 18.8335 22.6408 18.8335 25.1054V28.7657H16.3884H13.9433L13.8018 28.6242L13.6603 28.4778L13.6701 23.1972L13.6847 17.9165L18.0771 15.8277C20.4929 14.6808 22.4744 13.7389 22.4744 13.7389C22.4792 13.734 24.4656 14.6759 26.8912 15.8228ZM24.7584 21.0254C25.1 21.1669 25.0805 20.9131 25.0805 25.042V28.7657H22.4939H19.9073V25.042C19.9073 20.9278 19.8877 21.1718 20.2196 21.0254C20.4441 20.9278 24.5241 20.9278 24.7584 21.0254Z" fill="black"/>
</svg>
