<svg version="1.1" xmlns="http://www.w3.org/2000/svg" xmlns:xlink="http://www.w3.org/1999/xlink" width="64px" height="64px" viewBox="0,0,256,256"><g fill="#ffffff" fill-rule="nonzero" stroke="none" stroke-width="1" stroke-linecap="butt" stroke-linejoin="miter" stroke-miterlimit="10" stroke-dasharray="" stroke-dashoffset="0" font-family="none" font-weight="none" font-size="none" text-anchor="none" style="mix-blend-mode: normal"><g transform="scale(4,4)"><path d="M13,4c-1.64497,0 -3,1.35503 -3,3c0,1.29313 0.84268,2.39513 2,2.8125v15.1875h-8.16797c-1.60201,0 -2.83203,1.40028 -2.83203,3c0,1.30674 0.82619,2.46745 2,2.85352v29.14648c0.00006,0.55226 0.44774,0.99994 1,1h18h20h18c0.55226,-0.00006 0.99994,-0.44774 1,-1v-10.83203c0.01785,-0.10799 0.01785,-0.21818 0,-0.32617v-32.98828c1.17381,-0.38607 2,-1.54677 2,-2.85352c0,-1.59972 -1.23156,-3 -2.83398,-3h-18.33398c-1.60201,0 -2.83203,1.40028 -2.83203,3c0,1.30674 0.82619,2.46745 2,2.85352v18.14648h-7v-24.1875c1.15732,-0.41737 2,-1.51937 2,-2.8125c0,-1.64497 -1.35503,-3 -3,-3zM13,6h20c0.56503,0 1,0.43497 1,1c0,0.56503 -0.43497,1 -1,1h-20c-0.56503,0 -1,-0.43497 -1,-1c0,-0.56503 0.43497,-1 1,-1zM14,10h18v24h-9v-3.14648c1.17381,-0.38607 2,-1.54677 2,-2.85352c0,-1.59972 -1.23156,-3 -2.83398,-3h-8.16602zM18,12c-0.553,0 -1,0.447 -1,1c0,0.553 0.447,1 1,1h2c0.553,0 1,-0.447 1,-1c0,-0.553 -0.447,-1 -1,-1zM26,12c-0.553,0 -1,0.447 -1,1c0,0.553 0.447,1 1,1h2c0.553,0 1,-0.447 1,-1c0,-0.553 -0.447,-1 -1,-1zM41.83203,12h18.33398c0.42557,0 0.83398,0.38972 0.83398,1c0,0.61028 -0.40804,1 -0.83203,1h-0.16797h-18h-0.16797c-0.42399,0 -0.83203,-0.38972 -0.83203,-1c0,-0.61028 0.40804,-1 0.83203,-1zM43,16h16v32h-16v-8.17578c1.17625,-0.40689 2.03711,-1.51748 2.03711,-2.82422c0,-1.30674 -0.86086,-2.41733 -2.03711,-2.82422zM18,17c-0.553,0 -1,0.447 -1,1c0,0.553 0.447,1 1,1h2c0.553,0 1,-0.447 1,-1c0,-0.553 -0.447,-1 -1,-1zM26,17c-0.553,0 -1,0.447 -1,1c0,0.553 0.447,1 1,1h2c0.553,0 1,-0.447 1,-1c0,-0.553 -0.447,-1 -1,-1zM46,18c-0.553,0 -1,0.447 -1,1c0,0.553 0.447,1 1,1h2c0.553,0 1,-0.447 1,-1c0,-0.553 -0.447,-1 -1,-1zM54,18c-0.553,0 -1,0.447 -1,1c0,0.553 0.447,1 1,1h2c0.553,0 1,-0.447 1,-1c0,-0.553 -0.447,-1 -1,-1zM18,22c-0.553,0 -1,0.447 -1,1c0,0.553 0.447,1 1,1h2c0.553,0 1,-0.447 1,-1c0,-0.553 -0.447,-1 -1,-1zM26,22c-0.553,0 -1,0.447 -1,1c0,0.553 0.447,1 1,1h2c0.553,0 1,-0.447 1,-1c0,-0.553 -0.447,-1 -1,-1zM46,23c-0.553,0 -1,0.447 -1,1c0,0.553 0.447,1 1,1h2c0.553,0 1,-0.447 1,-1c0,-0.553 -0.447,-1 -1,-1zM54,23c-0.553,0 -1,0.447 -1,1c0,0.553 0.447,1 1,1h2c0.553,0 1,-0.447 1,-1c0,-0.553 -0.447,-1 -1,-1zM3.83203,27h18.33398c0.42557,0 0.83398,0.38972 0.83398,1c0,0.61028 -0.40804,1 -0.83203,1h-0.16797h-18h-0.16797c-0.42399,0 -0.83203,-0.38972 -0.83203,-1c0,-0.61028 0.40804,-1 0.83203,-1zM46,28c-0.553,0 -1,0.447 -1,1c0,0.553 0.447,1 1,1h2c0.553,0 1,-0.447 1,-1c0,-0.553 -0.447,-1 -1,-1zM54,28c-0.553,0 -1,0.447 -1,1c0,0.553 0.447,1 1,1h2c0.553,0 1,-0.447 1,-1c0,-0.553 -0.447,-1 -1,-1zM5,31h16v3.19922c-1.13842,0.42742 -1.96289,1.52126 -1.96289,2.80078c0,1.27952 0.82447,2.37336 1.96289,2.80078v19.19922h-16zM8,33c-0.553,0 -1,0.447 -1,1c0,0.553 0.447,1 1,1h2c0.553,0 1,-0.447 1,-1c0,-0.553 -0.447,-1 -1,-1zM16,33c-0.553,0 -1,0.447 -1,1c0,0.553 0.447,1 1,1h2c0.553,0 1,-0.447 1,-1c0,-0.553 -0.447,-1 -1,-1zM46,33c-0.553,0 -1,0.447 -1,1c0,0.553 0.447,1 1,1h2c0.553,0 1,-0.447 1,-1c0,-0.553 -0.447,-1 -1,-1zM54,33c-0.553,0 -1,0.447 -1,1c0,0.553 0.447,1 1,1h2c0.553,0 1,-0.447 1,-1c0,-0.553 -0.447,-1 -1,-1zM22.1582,36h10.67383c0.10799,0.01785 0.21818,0.01785 0.32617,0h8.67383c0.08388,0.01404 0.1692,0.01732 0.25391,0.00977c0.53943,0.02583 0.95117,0.44271 0.95117,0.99023c0,0.54753 -0.41174,0.9644 -0.95117,0.99023c-0.00066,0.00003 -0.00129,-0.00003 -0.00195,0c-0.08083,-0.00658 -0.16215,-0.0033 -0.24219,0.00977h-19.67383c-0.06578,-0.01119 -0.13252,-0.01577 -0.19922,-0.01367c-0.00065,0 -0.0013,0 -0.00195,0c-0.5282,-0.03646 -0.92969,-0.44648 -0.92969,-0.98633c0,-0.54268 0.40517,-0.95568 0.9375,-0.98828c0.06143,0.00174 0.12289,-0.00218 0.18359,-0.01172zM8,38c-0.553,0 -1,0.447 -1,1c0,0.553 0.447,1 1,1h2c0.553,0 1,-0.447 1,-1c0,-0.553 -0.447,-1 -1,-1zM16,38c-0.553,0 -1,0.447 -1,1c0,0.553 0.447,1 1,1h2c0.553,0 1,-0.447 1,-1c0,-0.553 -0.447,-1 -1,-1zM46,38c-0.553,0 -1,0.447 -1,1c0,0.553 0.447,1 1,1h2c0.553,0 1,-0.447 1,-1c0,-0.553 -0.447,-1 -1,-1zM54,38c-0.553,0 -1,0.447 -1,1c0,0.553 0.447,1 1,1h2c0.553,0 1,-0.447 1,-1c0,-0.553 -0.447,-1 -1,-1zM23,40h18v8.83203c-0.01785,0.10799 -0.01785,0.21818 0,0.32617v9.8418h-18zM8,43c-0.553,0 -1,0.447 -1,1c0,0.553 0.447,1 1,1h2c0.553,0 1,-0.447 1,-1c0,-0.553 -0.447,-1 -1,-1zM16,43c-0.553,0 -1,0.447 -1,1c0,0.553 0.447,1 1,1h2c0.553,0 1,-0.447 1,-1c0,-0.553 -0.447,-1 -1,-1zM27,43c-0.553,0 -1,0.447 -1,1c0,0.553 0.447,1 1,1h2c0.553,0 1,-0.447 1,-1c0,-0.553 -0.447,-1 -1,-1zM35,43c-0.553,0 -1,0.447 -1,1c0,0.553 0.447,1 1,1h2c0.553,0 1,-0.447 1,-1c0,-0.553 -0.447,-1 -1,-1zM46,43c-0.553,0 -1,0.447 -1,1c0,0.553 0.447,1 1,1h2c0.553,0 1,-0.447 1,-1c0,-0.553 -0.447,-1 -1,-1zM54,43c-0.553,0 -1,0.447 -1,1c0,0.553 0.447,1 1,1h2c0.553,0 1,-0.447 1,-1c0,-0.553 -0.447,-1 -1,-1zM27,48c-0.553,0 -1,0.447 -1,1c0,0.553 0.447,1 1,1h2c0.553,0 1,-0.447 1,-1c0,-0.553 -0.447,-1 -1,-1zM35,48c-0.553,0 -1,0.447 -1,1c0,0.553 0.447,1 1,1h2c0.553,0 1,-0.447 1,-1c0,-0.553 -0.447,-1 -1,-1zM43,50h16v9h-16z"></path></g></g></svg>