<svg width="153" height="40" viewBox="0 0 153 40" fill="none" xmlns="http://www.w3.org/2000/svg">
<path d="M45.6322 29.661C46.5045 29.6401 47.2945 29.6901 48.0747 30.0578C49.7854 30.8641 49.9127 33.7681 48.4612 34.7804C47.8048 35.2382 47.1308 35.4534 46.3713 35.4622C45.1895 35.4758 44.0076 35.4658 42.7864 35.4658C42.7864 33.5334 42.7864 31.6445 42.7864 29.661C43.7098 29.661 44.6454 29.661 45.6322 29.661ZM45.1699 34.5159C45.5982 34.5157 46.0271 34.5304 46.4548 34.5123C47.5082 34.4674 48.2264 33.7758 48.391 32.6679C48.5078 31.8806 47.8831 30.8737 46.9507 30.7373C45.9246 30.5872 44.8614 30.7031 43.7775 30.7031C43.7775 31.3282 43.7775 31.9577 43.7775 32.5871C43.7775 33.2122 43.7775 33.8373 43.7775 34.5159C44.253 34.5159 44.6602 34.5159 45.1699 34.5159Z" fill="white"/>
<path d="M57.5297 29.7098H56.3956L59.3855 33.0343V35.4617H60.3134V33.0343L63.3548 29.7098H62.2207C61.4475 30.5541 59.8906 32.2533 59.8494 32.2955C59.7979 32.3483 57.6328 29.7098 57.5297 29.7098Z" fill="white"/>
<path d="M71.1388 35.4617L71.1904 29.657H72.376L76.6547 34.3008V29.657H77.5826V35.4617H76.3969L72.1698 30.7652V35.4617H71.1388Z" fill="white"/>
<path fill-rule="evenodd" clip-rule="evenodd" d="M85.4697 35.4617H86.5007L87.1193 34.0897H90.8309L91.501 35.4617H92.5835L89.5937 29.657H88.408L85.4697 35.4617ZM90.4185 33.2454H87.5317L89.0266 30.5541L90.4185 33.2454Z" fill="white"/>
<path d="M100.419 35.4617V29.657H101.553L104.182 33.0871L106.863 29.657H108.049V35.4617H107.121V30.8179L104.182 34.4591L101.347 30.8179V35.4617H100.419Z" fill="white"/>
<path d="M116.76 35.4617V29.657H117.74V35.4617H116.76Z" fill="white"/>
<path d="M127.818 29.8871C129.808 28.9931 132.012 29.5219 133.01 30.8959C132.585 31.3779 132.226 31.4008 131.745 31.032C130.553 30.1201 128.406 30.2341 127.612 31.4364C126.762 32.722 127.468 34.095 128.842 34.4823C130.058 34.8251 131.206 34.6019 132.169 33.6621C132.452 33.8241 132.729 33.983 133.033 34.1574C132.686 34.7539 132.139 35.0877 131.553 35.2988C130.414 35.7094 129.233 35.7256 128.101 35.2917C127.114 34.9132 126.386 34.2104 126.234 33.0773C126.046 31.674 126.518 30.5796 127.818 29.8871Z" fill="white"/>
<path d="M143.658 35.5673C143.197 35.5673 142.802 35.5153 142.474 35.4113C142.145 35.3073 141.877 35.1811 141.671 35.0325C141.465 34.884 141.31 34.7355 141.202 34.5869C141.103 34.4384 141.05 34.3196 141.041 34.2304C141.033 34.1487 141.062 34.0856 141.128 34.0411C141.194 33.9965 141.26 33.9742 141.326 33.9742H141.868C141.918 33.9742 141.955 33.9816 141.98 33.9965C142.013 34.0039 142.054 34.0337 142.103 34.0856C142.21 34.1896 142.329 34.2935 142.461 34.3976C142.592 34.5015 142.753 34.5869 142.943 34.6537C143.14 34.7206 143.382 34.754 143.671 34.754C144.09 34.754 144.436 34.6835 144.707 34.5424C144.978 34.3938 145.114 34.1785 145.114 33.8963C145.114 33.7105 145.056 33.562 144.941 33.4506C144.835 33.3392 144.637 33.2389 144.349 33.1498C144.07 33.0607 143.683 32.9678 143.189 32.8713C142.695 32.7673 142.304 32.6411 142.017 32.4926C141.729 32.3366 141.523 32.1546 141.399 31.9466C141.277 31.7313 141.215 31.4899 141.215 31.2225C141.215 30.9478 141.305 30.684 141.486 30.4316C141.667 30.1716 141.93 29.9599 142.276 29.7965C142.629 29.6331 143.069 29.5515 143.596 29.5515C144.024 29.5515 144.39 29.5997 144.694 29.6963C144.998 29.7928 145.25 29.9154 145.447 30.064C145.645 30.2051 145.792 30.3462 145.891 30.4873C145.99 30.6284 146.044 30.7472 146.052 30.8437C146.06 30.918 146.036 30.9811 145.978 31.0331C145.92 31.0777 145.854 31.0999 145.78 31.0999H145.262C145.205 31.0999 145.155 31.0889 145.114 31.0666C145.081 31.0442 145.048 31.0183 145.015 30.9886C144.932 30.892 144.835 30.7955 144.719 30.6989C144.612 30.6023 144.469 30.5244 144.287 30.465C144.115 30.3981 143.884 30.3648 143.596 30.3648C143.185 30.3648 142.877 30.4426 142.67 30.5986C142.465 30.7546 142.362 30.9515 142.362 31.1891C142.362 31.3302 142.408 31.4565 142.498 31.5679C142.588 31.6793 142.761 31.7795 143.016 31.8687C143.272 31.9578 143.65 32.0544 144.151 32.1583C144.694 32.2549 145.122 32.3848 145.435 32.5482C145.747 32.7117 145.97 32.901 146.102 33.1164C146.233 33.3318 146.299 33.5806 146.299 33.8628C146.299 34.1748 146.195 34.4607 145.99 34.7206C145.792 34.9806 145.496 35.1885 145.102 35.3445C144.715 35.493 144.233 35.5673 143.658 35.5673Z" fill="white"/>
<path d="M13.4545 15.3562L13.403 4.53826C15.8773 6.75462 18.7641 7.12401 22.785 5.80475L13.4545 15.3562Z" fill="url(#paint0_linear_190_162)"/>
<path d="M12.1485 21.2635L4.6395 13.6514C7.92011 13.4274 10.2165 11.599 12.1485 7.7557V21.2635Z" fill="url(#paint1_linear_190_162)"/>
<path d="M15.1041 26.3325L4.53638 26.3852C6.70147 23.8522 7.06232 20.8971 5.77357 16.781L15.1041 26.3325Z" fill="url(#paint2_linear_190_162)"/>
<path d="M20.8748 27.7565L13.4387 35.4433C13.22 32.085 11.4339 29.7341 7.67941 27.7565H20.8748Z" fill="url(#paint3_linear_190_162)"/>
<path d="M25.8265 24.8021L25.878 35.5673C23.4037 33.3617 20.5169 32.9942 16.496 34.307L25.8265 24.8021Z" fill="url(#paint4_linear_190_162)"/>
<path d="M27.2699 18.8391L34.6931 26.4908C31.42 26.7223 29.1121 28.5035 27.1758 32.3424L27.2699 18.8391Z" fill="url(#paint5_linear_190_162)"/>
<path d="M24.2963 13.6675L34.8125 13.6931C32.6401 16.21 32.26 19.1623 33.5132 23.2879L24.2963 13.6675Z" fill="url(#paint6_linear_190_162)"/>
<path d="M18.4914 12.2932L25.8909 4.6438C26.1171 7.99445 27.9045 10.344 31.6545 12.3262L18.4914 12.2932Z" fill="url(#paint7_linear_190_162)"/>
<path d="M57.2204 10.7652H54.8491C54.8491 9.8153 54.3336 9.34037 53.5603 9.18206H44.7453C43.972 9.2876 43.5081 9.55145 43.2503 10.3958V12.5066C43.3534 13.2982 43.8174 13.8259 44.7453 13.9842H53.5603C55.4161 14.0369 57.0134 15.4056 57.2204 17.467V19.9472C56.9111 22.058 55.6482 23.0837 53.7665 23.5356H44.6422C41.9616 23.0607 41.0337 21.5831 40.9306 19.5251H43.2503C43.459 20.5498 43.7951 20.8585 44.6422 21.1082H53.5603C54.282 20.9499 54.6429 20.5805 54.8491 19.9472V17.7309C54.746 16.8865 54.2305 16.4644 53.5603 16.3588H44.7453C42.5286 16.2533 41.2399 14.7757 40.9306 12.9288V10.0264C41.2266 8.18456 42.5286 6.9657 44.6422 6.75462H53.6119C55.5708 6.9657 57.2204 8.44327 57.2204 10.7652Z" fill="url(#paint8_linear_190_162)"/>
<path fill-rule="evenodd" clip-rule="evenodd" d="M73.1493 19.5251H75.469C75.6237 21.2665 74.3957 23.1251 71.8605 23.5356H62.6847C60.3649 23.0079 59.5401 21.6887 59.1793 20V10.5013C59.5401 8.17942 60.8289 7.12401 62.6847 6.75462H71.9121C73.6648 6.9657 75.1082 8.17942 75.469 9.92084V13.1926C75.0566 14.934 73.7163 16.1478 71.9636 16.3588H61.5506V19.7361C61.5506 20.5277 61.9114 20.8971 62.6847 21.1082H71.8605C72.7511 20.8998 73.0265 20.5461 73.1493 19.5251ZM71.7574 13.9314H61.5506V10.5541C61.5506 9.70976 61.9114 9.18206 62.994 9.18206C63.0418 9.21001 65.6478 9.20062 68.2336 9.1913C69.5188 9.18667 70.7989 9.18206 71.7574 9.18206C72.4276 9.23483 72.9431 9.55145 73.2008 10.5541V12.6649C72.9274 13.4415 72.5986 13.7064 71.7574 13.9314Z" fill="url(#paint9_linear_190_162)"/>
<path d="M93.8208 19.5251H91.501C91.3782 20.5461 91.1028 20.8998 90.2123 21.1082H81.0364C80.2631 20.8971 79.9023 20.5277 79.9023 19.7361V10.5541C79.9023 9.70976 80.2631 9.18206 81.3457 9.18206C81.3935 9.21001 83.9996 9.20062 86.5853 9.1913C87.8705 9.18667 89.1508 9.18206 90.1092 9.18206C90.7793 9.23483 91.2948 9.55145 91.5526 10.5541V10.7652C91.5526 10.723 93.0647 10.7475 93.8208 10.7652V9.92084C93.4599 8.17942 92.0165 6.9657 90.2638 6.75462H81.0364C79.1806 7.12401 77.8919 8.17942 77.531 10.5013V20C77.8919 21.6887 78.7167 23.0079 81.0364 23.5356H90.2123C92.7475 23.1251 93.9754 21.2665 93.8208 19.5251Z" fill="url(#paint10_linear_190_162)"/>
<path d="M114.131 10.343V23.5356H116.503V10.5013C116.606 9.92084 117.07 9.23483 118.049 9.18206H126.813C127.483 9.23483 127.895 9.49868 128.153 10.5013V10.7652C128.153 10.723 129.665 10.7475 130.421 10.7652V9.86807C130.06 8.12665 128.72 6.9657 126.967 6.75462H117.688C115.833 7.12401 114.492 8.02111 114.131 10.343Z" fill="url(#paint11_linear_190_162)"/>
<path d="M112.173 19.855V6.75462H109.801V19.855C109.595 20.6465 109.234 21.0159 108.461 21.0159H99.4913C98.6665 21.0159 98.2541 20.6332 98.2541 19.5251V6.75462H95.7797V19.855C96.1405 21.7547 97.1715 23.074 99.4397 23.4434H108.719C110.368 23.074 111.657 22.2297 112.173 19.855Z" fill="url(#paint12_linear_190_162)"/>
<path fill-rule="evenodd" clip-rule="evenodd" d="M146.35 19.5251H148.67C148.824 21.2665 147.597 23.1251 145.061 23.5356H135.885C133.566 23.0079 132.741 21.6887 132.38 20V10.5013C132.741 8.17942 134.03 7.12401 135.885 6.75462H145.113C146.866 6.9657 148.309 8.17942 148.67 9.92084V13.1926C148.257 14.934 146.917 16.1478 145.164 16.3588H134.751V19.7361C134.751 20.5277 135.112 20.8971 135.885 21.1082H145.061C145.952 20.8998 146.227 20.5461 146.35 19.5251ZM144.958 13.9314H134.751V10.5541C134.751 9.70976 135.112 9.18206 136.195 9.18206C136.242 9.21001 138.849 9.20062 141.434 9.1913C142.72 9.18667 143.999 9.18206 144.958 9.18206C145.628 9.23483 146.144 9.55145 146.402 10.5541V12.6649C146.128 13.4415 145.8 13.7064 144.958 13.9314Z" fill="url(#paint13_linear_190_162)"/>
<defs>
<linearGradient id="paint0_linear_190_162" x1="18.5579" y1="3.43008" x2="13.1454" y2="15.2088" gradientUnits="userSpaceOnUse">
<stop stop-color="#D9D9D9"/>
<stop offset="0.0001" stop-color="#0153A5"/>
<stop offset="1" stop-color="#00A4E6"/>
</linearGradient>
<linearGradient id="paint1_linear_190_162" x1="19.6745" y1="4.6438" x2="19.6745" y2="35.5673" gradientUnits="userSpaceOnUse">
<stop stop-color="#B8BABC"/>
<stop offset="1" stop-color="#606062"/>
</linearGradient>
<linearGradient id="paint2_linear_190_162" x1="19.6745" y1="4.6438" x2="19.6745" y2="35.5673" gradientUnits="userSpaceOnUse">
<stop stop-color="#B8BABC"/>
<stop offset="1" stop-color="#606062"/>
</linearGradient>
<linearGradient id="paint3_linear_190_162" x1="19.6745" y1="4.6438" x2="19.6745" y2="35.5673" gradientUnits="userSpaceOnUse">
<stop stop-color="#B8BABC"/>
<stop offset="1" stop-color="#606062"/>
</linearGradient>
<linearGradient id="paint4_linear_190_162" x1="19.6745" y1="4.6438" x2="19.6745" y2="35.5673" gradientUnits="userSpaceOnUse">
<stop stop-color="#B8BABC"/>
<stop offset="1" stop-color="#606062"/>
</linearGradient>
<linearGradient id="paint5_linear_190_162" x1="19.6745" y1="4.6438" x2="19.6745" y2="35.5673" gradientUnits="userSpaceOnUse">
<stop stop-color="#B8BABC"/>
<stop offset="1" stop-color="#606062"/>
</linearGradient>
<linearGradient id="paint6_linear_190_162" x1="19.6745" y1="4.6438" x2="19.6745" y2="35.5673" gradientUnits="userSpaceOnUse">
<stop stop-color="#B8BABC"/>
<stop offset="1" stop-color="#606062"/>
</linearGradient>
<linearGradient id="paint7_linear_190_162" x1="19.6745" y1="4.6438" x2="19.6745" y2="35.5673" gradientUnits="userSpaceOnUse">
<stop stop-color="#B8BABC"/>
<stop offset="1" stop-color="#606062"/>
</linearGradient>
<linearGradient id="paint8_linear_190_162" x1="94.8067" y1="6.75462" x2="94.8067" y2="23.5356" gradientUnits="userSpaceOnUse">
<stop stop-color="#094FA3"/>
<stop offset="1" stop-color="#00A5E8"/>
</linearGradient>
<linearGradient id="paint9_linear_190_162" x1="94.8067" y1="6.75462" x2="94.8067" y2="23.5356" gradientUnits="userSpaceOnUse">
<stop stop-color="#094FA3"/>
<stop offset="1" stop-color="#00A5E8"/>
</linearGradient>
<linearGradient id="paint10_linear_190_162" x1="94.8067" y1="6.75462" x2="94.8067" y2="23.5356" gradientUnits="userSpaceOnUse">
<stop stop-color="#094FA3"/>
<stop offset="1" stop-color="#00A5E8"/>
</linearGradient>
<linearGradient id="paint11_linear_190_162" x1="94.8067" y1="6.75462" x2="94.8067" y2="23.5356" gradientUnits="userSpaceOnUse">
<stop stop-color="#094FA3"/>
<stop offset="1" stop-color="#00A5E8"/>
</linearGradient>
<linearGradient id="paint12_linear_190_162" x1="94.8067" y1="6.75462" x2="94.8067" y2="23.5356" gradientUnits="userSpaceOnUse">
<stop stop-color="#094FA3"/>
<stop offset="1" stop-color="#00A5E8"/>
</linearGradient>
<linearGradient id="paint13_linear_190_162" x1="94.8067" y1="6.75462" x2="94.8067" y2="23.5356" gradientUnits="userSpaceOnUse">
<stop stop-color="#094FA3"/>
<stop offset="1" stop-color="#00A5E8"/>
</linearGradient>
</defs>
</svg>
